<svg width="272" height="59" viewBox="0 0 272 59" fill="none" xmlns="http://www.w3.org/2000/svg">
<path d="M0 0H23.5708V50H7.85692V42.3077H15.7138V7.69231H7.85692V25H0V0Z" fill="url(#paint0_linear_2009_652)"/>
<path d="M55 50H31.4292V1.15898e-05H47.1431V7.69232H39.2862V42.3077H47.1431V25H55V50Z" fill="url(#paint1_linear_2009_652)"/>
<path d="M68.5909 25.3267V20.9091H91.8011V25.3267H82.8097V50H77.5824V25.3267H68.5909ZM93.7827 50V28.1818H98.7685V31.8182H98.9957C99.3935 30.5587 100.075 29.5881 101.041 28.9062C102.017 28.215 103.129 27.8693 104.379 27.8693C104.663 27.8693 104.981 27.8835 105.331 27.9119C105.691 27.9309 105.989 27.964 106.226 28.0114V32.7415C106.008 32.6657 105.662 32.5994 105.189 32.5426C104.725 32.4763 104.275 32.4432 103.839 32.4432C102.902 32.4432 102.059 32.6468 101.311 33.054C100.572 33.4517 99.9901 34.0057 99.5639 34.7159C99.1378 35.4261 98.9247 36.2453 98.9247 37.1733V50H93.7827ZM113.502 58.1818C112.801 58.1818 112.153 58.125 111.556 58.0114C110.969 57.9072 110.5 57.7841 110.15 57.642L111.343 53.6364C112.091 53.8542 112.759 53.9583 113.346 53.9489C113.933 53.9394 114.449 53.7547 114.894 53.3949C115.349 53.0445 115.732 52.4574 116.045 51.6335L116.485 50.4545L108.573 28.1818H114.028L119.056 44.6591H119.283L124.326 28.1818H129.795L121.059 52.642C120.652 53.7973 120.112 54.7869 119.44 55.6108C118.767 56.4441 117.943 57.0786 116.968 57.5142C116.002 57.9593 114.847 58.1818 113.502 58.1818ZM133.353 50V28.1818H138.268V31.8892H138.523C138.978 30.6392 139.731 29.6638 140.782 28.9631C141.833 28.2528 143.088 27.8977 144.546 27.8977C146.023 27.8977 147.269 28.2576 148.282 28.9773C149.305 29.6875 150.024 30.6581 150.441 31.8892H150.668C151.151 30.6771 151.966 29.7112 153.112 28.9915C154.267 28.2623 155.635 27.8977 157.217 27.8977C159.224 27.8977 160.862 28.5322 162.131 29.8011C163.4 31.0701 164.035 32.9214 164.035 35.3551V50H158.879V36.1506C158.879 34.7964 158.519 33.8068 157.799 33.1818C157.079 32.5473 156.199 32.2301 155.157 32.2301C153.916 32.2301 152.946 32.6184 152.245 33.3949C151.554 34.1619 151.208 35.161 151.208 36.392V50H146.165V35.9375C146.165 34.8106 145.825 33.911 145.143 33.2386C144.47 32.5663 143.59 32.2301 142.501 32.2301C141.762 32.2301 141.09 32.4195 140.484 32.7983C139.878 33.1676 139.395 33.6932 139.035 34.375C138.675 35.0473 138.495 35.8333 138.495 36.733V50H133.353ZM169.479 50V20.9091H174.621V31.7898H174.834C175.099 31.2595 175.473 30.696 175.956 30.0994C176.439 29.4934 177.092 28.9773 177.916 28.5511C178.74 28.1155 179.791 27.8977 181.07 27.8977C182.755 27.8977 184.275 28.3286 185.629 29.1903C186.993 30.0426 188.072 31.3068 188.868 32.983C189.673 34.6496 190.075 36.6951 190.075 39.1193C190.075 41.5152 189.682 43.5511 188.896 45.2273C188.11 46.9034 187.04 48.1818 185.686 49.0625C184.332 49.9432 182.798 50.3835 181.084 50.3835C179.834 50.3835 178.797 50.1752 177.973 49.7585C177.149 49.3419 176.486 48.84 175.984 48.2528C175.492 47.6562 175.108 47.0928 174.834 46.5625H174.536V50H169.479ZM174.521 39.0909C174.521 40.5019 174.72 41.7377 175.118 42.7983C175.525 43.8589 176.107 44.6875 176.865 45.2841C177.632 45.8712 178.56 46.1648 179.649 46.1648C180.786 46.1648 181.737 45.8617 182.504 45.2557C183.271 44.6402 183.849 43.8021 184.237 42.7415C184.635 41.6714 184.834 40.4545 184.834 39.0909C184.834 37.7367 184.64 36.5341 184.251 35.483C183.863 34.4318 183.286 33.608 182.518 33.0114C181.751 32.4148 180.795 32.1165 179.649 32.1165C178.551 32.1165 177.618 32.4053 176.851 32.983C176.084 33.5606 175.501 34.3703 175.104 35.4119C174.715 36.4536 174.521 37.6799 174.521 39.0909ZM194.674 50V20.9091H199.944V45.5824H212.756V50H194.674ZM217.103 50V28.1818H222.245V50H217.103ZM219.688 25.0852C218.874 25.0852 218.173 24.8153 217.586 24.2756C216.999 23.7263 216.705 23.0682 216.705 22.3011C216.705 21.5246 216.999 20.8665 217.586 20.3267C218.173 19.7775 218.874 19.5028 219.688 19.5028C220.512 19.5028 221.213 19.7775 221.79 20.3267C222.378 20.8665 222.671 21.5246 222.671 22.3011C222.671 23.0682 222.378 23.7263 221.79 24.2756C221.213 24.8153 220.512 25.0852 219.688 25.0852ZM232.675 37.2159V50H227.533V28.1818H232.447V31.8892H232.703C233.205 30.6676 234.005 29.697 235.104 28.9773C236.212 28.2576 237.58 27.8977 239.209 27.8977C240.714 27.8977 242.026 28.2197 243.143 28.8636C244.27 29.5076 245.142 30.4403 245.757 31.6619C246.382 32.8835 246.69 34.3655 246.68 36.108V50H241.538V36.9034C241.538 35.4451 241.16 34.304 240.402 33.4801C239.654 32.6562 238.617 32.2443 237.291 32.2443C236.392 32.2443 235.591 32.4432 234.891 32.8409C234.199 33.2292 233.655 33.7926 233.257 34.5312C232.869 35.2699 232.675 36.1648 232.675 37.2159ZM256.595 43.1534L256.581 36.946H257.405L265.246 28.1818H271.254L261.609 38.9205H260.544L256.595 43.1534ZM251.908 50V20.9091H257.05V50H251.908ZM265.601 50L258.499 40.071L261.964 36.4489L271.751 50H265.601Z" fill="#8A8A8A"/>
<defs>
<linearGradient id="paint0_linear_2009_652" x1="0.709304" y1="-0.347221" x2="36.9063" y2="51.7651" gradientUnits="userSpaceOnUse">
<stop stopColor="#A2A2A2"/>
<stop offset="1" stopColor="#666666"/>
</linearGradient>
<linearGradient id="paint1_linear_2009_652" x1="0.709304" y1="-0.347221" x2="36.9063" y2="51.7651" gradientUnits="userSpaceOnUse">
<stop stopColor="#A2A2A2"/>
<stop offset="1" stopColor="#666666"/>
</linearGradient>
</defs>
</svg>
