<svg width="131" height="25" viewBox="0 0 131 25" fill="none" xmlns="http://www.w3.org/2000/svg">
<path d="M0 0.420898H11.1499V24.579H3.71664V20.8624H7.43327V4.13753H3.71664V12.5H0V0.420898Z" fill="white"/>
<path d="M26.0156 24.579H14.8657V0.420904H22.299V4.13754H18.5824V20.8624H22.299V12.5H26.0156V24.579Z" fill="white"/>
<path d="M34.1756 5.22H45.7356V7.38H41.1956V19.5H38.6956V7.38H34.1756V5.22ZM45.2352 9.16H47.3752V11.16H47.4152C47.4818 10.88 47.6085 10.6067 47.7952 10.34C47.9952 10.0733 48.2285 9.83333 48.4952 9.62C48.7752 9.39333 49.0818 9.21333 49.4152 9.08C49.7485 8.94667 50.0885 8.88 50.4352 8.88C50.7018 8.88 50.8818 8.88667 50.9752 8.9C51.0818 8.91333 51.1885 8.92667 51.2952 8.94V11.14C51.1352 11.1133 50.9685 11.0933 50.7952 11.08C50.6352 11.0533 50.4752 11.04 50.3152 11.04C49.9285 11.04 49.5618 11.12 49.2152 11.28C48.8818 11.4267 48.5885 11.6533 48.3352 11.96C48.0818 12.2533 47.8818 12.62 47.7352 13.06C47.5885 13.5 47.5152 14.0067 47.5152 14.58V19.5H45.2352V9.16ZM51.1264 9.16H53.6264L56.3264 16.88H56.3664L58.9864 9.16H61.3664L57.3464 20.06C57.1597 20.5267 56.9731 20.9733 56.7864 21.4C56.6131 21.8267 56.3931 22.2 56.1264 22.52C55.8731 22.8533 55.5531 23.1133 55.1664 23.3C54.7797 23.5 54.2864 23.6 53.6864 23.6C53.1531 23.6 52.6264 23.56 52.1064 23.48V21.56C52.2931 21.5867 52.4731 21.6133 52.6464 21.64C52.8197 21.68 52.9997 21.7 53.1864 21.7C53.4531 21.7 53.6731 21.6667 53.8464 21.6C54.0197 21.5333 54.1597 21.4333 54.2664 21.3C54.3864 21.18 54.4864 21.0333 54.5664 20.86C54.6464 20.6867 54.7197 20.4867 54.7864 20.26L55.0464 19.46L51.1264 9.16ZM62.6375 9.16H64.7975V10.6H64.8575C65.0308 10.3467 65.2175 10.1133 65.4175 9.9C65.6175 9.68667 65.8375 9.50667 66.0775 9.36C66.3308 9.21333 66.6175 9.1 66.9375 9.02C67.2575 8.92667 67.6242 8.88 68.0375 8.88C68.6642 8.88 69.2442 9.02 69.7775 9.3C70.3242 9.58 70.7108 10.0133 70.9375 10.6C71.3242 10.0667 71.7708 9.64667 72.2775 9.34C72.7842 9.03333 73.4175 8.88 74.1775 8.88C75.2708 8.88 76.1175 9.14667 76.7175 9.68C77.3308 10.2133 77.6375 11.1067 77.6375 12.36V19.5H75.3575V13.46C75.3575 13.0467 75.3442 12.6733 75.3175 12.34C75.2908 11.9933 75.2108 11.7 75.0775 11.46C74.9575 11.2067 74.7708 11.0133 74.5175 10.88C74.2642 10.7467 73.9175 10.68 73.4775 10.68C72.7042 10.68 72.1442 10.92 71.7975 11.4C71.4508 11.88 71.2775 12.56 71.2775 13.44V19.5H68.9975V12.86C68.9975 12.14 68.8642 11.6 68.5975 11.24C68.3442 10.8667 67.8708 10.68 67.1775 10.68C66.8842 10.68 66.5975 10.74 66.3175 10.86C66.0508 10.98 65.8108 11.1533 65.5975 11.38C65.3975 11.6067 65.2308 11.8867 65.0975 12.22C64.9775 12.5533 64.9175 12.9333 64.9175 13.36V19.5H62.6375V9.16ZM80.0998 5.22H82.3798V10.5H82.4198C82.5798 10.2467 82.7732 10.02 82.9998 9.82C83.2265 9.62 83.4732 9.45333 83.7398 9.32C84.0198 9.17333 84.3065 9.06667 84.5998 9C84.9065 8.92 85.2065 8.88 85.4998 8.88C86.3132 8.88 87.0198 9.02667 87.6198 9.32C88.2332 9.6 88.7398 9.99333 89.1398 10.5C89.5398 10.9933 89.8398 11.5733 90.0398 12.24C90.2398 12.9067 90.3398 13.62 90.3398 14.38C90.3398 15.0733 90.2465 15.7467 90.0598 16.4C89.8865 17.0533 89.6132 17.6333 89.2398 18.14C88.8798 18.6333 88.4198 19.0333 87.8598 19.34C87.2998 19.6333 86.6398 19.78 85.8798 19.78C85.5332 19.78 85.1798 19.7533 84.8198 19.7C84.4732 19.66 84.1398 19.5733 83.8198 19.44C83.4998 19.3067 83.2065 19.1333 82.9398 18.92C82.6865 18.7067 82.4732 18.4267 82.2998 18.08H82.2598V19.5H80.0998V5.22ZM88.0598 14.34C88.0598 13.8733 87.9998 13.42 87.8798 12.98C87.7598 12.54 87.5798 12.1533 87.3398 11.82C87.0998 11.4733 86.7998 11.2 86.4398 11C86.0798 10.7867 85.6665 10.68 85.1998 10.68C84.2398 10.68 83.5132 11.0133 83.0198 11.68C82.5398 12.3467 82.2998 13.2333 82.2998 14.34C82.2998 14.86 82.3598 15.3467 82.4798 15.8C82.6132 16.24 82.8065 16.62 83.0598 16.94C83.3132 17.26 83.6132 17.5133 83.9598 17.7C84.3198 17.8867 84.7332 17.98 85.1998 17.98C85.7198 17.98 86.1598 17.8733 86.5198 17.66C86.8798 17.4467 87.1732 17.1733 87.3998 16.84C87.6398 16.4933 87.8065 16.1067 87.8998 15.68C88.0065 15.24 88.0598 14.7933 88.0598 14.34ZM92.5864 5.22H95.0864V17.34H102.346V19.5H92.5864V5.22ZM103.811 5.22H106.091V7.38H103.811V5.22ZM103.811 9.16H106.091V19.5H103.811V9.16ZM108.575 9.16H110.735V10.68L110.775 10.72C111.122 10.1467 111.575 9.7 112.135 9.38C112.695 9.04667 113.315 8.88 113.995 8.88C115.128 8.88 116.022 9.17333 116.675 9.76C117.328 10.3467 117.655 11.2267 117.655 12.4V19.5H115.375V13C115.348 12.1867 115.175 11.6 114.855 11.24C114.535 10.8667 114.035 10.68 113.355 10.68C112.968 10.68 112.622 10.7533 112.315 10.9C112.008 11.0333 111.748 11.2267 111.535 11.48C111.322 11.72 111.155 12.0067 111.035 12.34C110.915 12.6733 110.855 13.0267 110.855 13.4V19.5H108.575V9.16ZM120.119 5.22H122.399V13.34L126.519 9.16H129.319L125.359 12.96L129.699 19.5H126.919L123.759 14.48L122.399 15.8V19.5H120.119V5.22Z" fill="white"/>
</svg>
